<?xml version="1.0" encoding="UTF-8" standalone="no" ?>
<!DOCTYPE svg PUBLIC "-//W3C//DTD SVG 1.1//EN" "http://www.w3.org/Graphics/SVG/1.1/DTD/svg11.dtd">
<svg xmlns="http://www.w3.org/2000/svg" xmlns:xlink="http://www.w3.org/1999/xlink" version="1.1" width="1080" height="1080" viewBox="0 0 1080 1080" xml:space="preserve">
<desc>Created with Fabric.js 5.2.4</desc>
<defs>
</defs>
<rect x="0" y="0" width="100%" height="100%" fill="transparent"></rect>
<g transform="matrix(1 0 0 1 540 540)" id="0d603556-bfe4-42e2-8401-beb165674fa1"  >
</g>
<g transform="matrix(1 0 0 1 540 540)" id="97ba8828-2c06-4960-ae77-75e66d594bb7"  >
<rect style="stroke: none; stroke-width: 1; stroke-dasharray: none; stroke-linecap: butt; stroke-dashoffset: 0; stroke-linejoin: miter; stroke-miterlimit: 4; fill: rgb(255,255,255); fill-rule: nonzero; opacity: 1; visibility: hidden;" vector-effect="non-scaling-stroke"  x="-540" y="-540" rx="0" ry="0" width="1080" height="1080" />
</g>
<g transform="matrix(1.26 0 0 1.18 540 540)"  >
<g style="" vector-effect="non-scaling-stroke"   >
		<g transform="matrix(1 0 0 1 66.5 109.17)"  >
<path style="stroke: none; stroke-width: 1; stroke-dasharray: none; stroke-linecap: butt; stroke-dashoffset: 0; stroke-linejoin: miter; stroke-miterlimit: 4; fill: rgb(255,255,255); fill-rule: nonzero; opacity: 1;" vector-effect="non-scaling-stroke"  transform=" translate(56.84, -88.85)" d="M 0 0 C 0.86625 0.845625 1.7325 1.69125 2.625 2.5625 C 4.80770249 4.23135549 4.80770249 4.23135549 6.8359375 3.71484375 C 9.27166149 2.91026344 11.62415689 1.96728234 14 1 C 29.53812012 -4.71469116 45.78555168 -6.41493641 61.17797852 0.64794922 C 67.72943794 3.8386291 73.59984683 7.03429369 78 13 C 78.61230469 13.82371094 79.22460938 14.64742188 79.85546875 15.49609375 C 87.06669531 25.97839215 89.24032685 36.3513921 88 49 C 86.33655976 57.05275683 83.65643981 64.64751996 80 72 C 79.55011719 72.91394531 79.10023438 73.82789063 78.63671875 74.76953125 C 77.43683176 77.18620505 76.22467747 79.5958176 75 82 C 74.34 82 73.68 82 73 82 C 72.34 83.98 71.68 85.96 71 88 C 70.34 88 69.68 88 69 88 C 69 88.66 69 89.32 69 90 C 68.34 90 67.68 90 67 90 C 67 90.99 67 91.98 67 93 C 66.34 93 65.68 93 65 93 C 65 93.66 65 94.32 65 95 C 63.390625 96.55078125 63.390625 96.55078125 61.25 98.3125 C 58.71773649 100.44728299 56.75101142 102.3162828 54.6875 104.9375 C 54.130625 105.618125 53.57375 106.29875 53 107 C 52.01 107 51.02 107 50 107 C 50 107.66 50 108.32 50 109 C 49.34 109 48.68 109 48 109 C 48 109.66 48 110.32 48 111 C 47.030625 111.45375 46.06125 111.9075 45.0625 112.375 C 41.92920418 113.65786221 41.92920418 113.65786221 41 116 C 39.26292523 116.97913213 37.48340948 117.88349114 35.6875 118.75 C 30.84717606 121.0952228 30.84717606 121.0952228 26.0625 123.55078125 C 17.16175719 128.23092727 7.90817231 131.5394184 -1.85546875 133.953125 C -10.67095991 136.10256599 -10.67095991 136.10256599 -16.96484375 142.25 C -17.30644531 142.8275 -17.64804687 143.405 -18 144 C -18.99477045 145.66979326 -19.99260254 147.33779419 -21 149 C -21.66 149 -22.32 149 -23 149 C -23 149.66 -23 150.32 -23 151 C -24.50390625 152.48046875 -24.50390625 152.48046875 -26.5625 154.1875 C -29.36695512 156.5623995 -32.01384831 158.97787767 -34.5625 161.625 C -36.85834759 163.97362569 -39.17714654 165.93883803 -41.875 167.8125 C -45.02099004 169.64507746 -45.02099004 169.64507746 -46 172 C -47.66072849 172.68132451 -49.327767 173.34742127 -51 174 C -51.66 174.66 -52.32 175.32 -53 176 C -53.99 176 -54.98 176 -56 176 C -56 176.66 -56 177.32 -56 178 C -59.38774386 179.3750544 -62.78624447 180.7212544 -66.1875 182.0625 C -67.14720703 182.45244141 -68.10691406 182.84238281 -69.09570312 183.24414062 C -70.02705078 183.60830078 -70.95839844 183.97246094 -71.91796875 184.34765625 C -72.77156982 184.68804932 -73.6251709 185.02844238 -74.50463867 185.37915039 C -77.36266346 186.09023121 -79.18753884 185.77744619 -82 185 C -81.0925 185.391875 -80.185 185.78375 -79.25 186.1875 C -74.39313702 188.89613512 -72.15660131 191.84194483 -70.625 197.125 C -70 201 -70 201 -72 204 C -74.45465849 204.28679046 -76.6564484 204.37873005 -79.11181641 204.34057617 C -79.84362625 204.34101425 -80.5754361 204.34145233 -81.329422 204.34190369 C -83.75373815 204.33980989 -86.17736684 204.3164519 -88.6015625 204.29296875 C -90.28021873 204.28737488 -91.95887985 204.28310379 -93.63754272 204.28010559 C -98.05999222 204.26864033 -102.48214706 204.23915891 -106.90447998 204.20599365 C -111.4154461 204.17532884 -115.92645974 204.16160795 -120.4375 204.14648438 C -129.29179627 204.11429065 -138.14587365 204.06307417 -147 204 C -147.80010451 199.19937295 -148.20210558 196.40421115 -146 192 C -145.67 191.01 -145.34 190.02 -145 189 C -143.12382302 187.15500602 -141.07262391 185.6316401 -139 184 C -140.11117187 183.45472656 -141.22234375 182.90945313 -142.3671875 182.34765625 C -164.25725697 171.35339716 -164.25725697 171.35339716 -169 160 C -169.94796574 154.47446995 -169.55311668 149.28011703 -166.3671875 144.578125 C -158.44564025 135.43439618 -144.25139006 129.74271446 -133 126 C -132.34 126 -131.68 126 -131 126 C -130.67 125.34 -130.34 124.68 -130 124 C -129.01 124 -128.02 124 -127 124 C -126.67 123.34 -126.34 122.68 -126 122 C -124.576875 121.071875 -124.576875 121.071875 -123.125 120.125 C -119.37514161 117.63531833 -119.37514161 117.63531833 -117 114 C -117.2629503 108.30948572 -118.64045452 105.67242739 -122.5 101.5625 C -128.39011981 94.62629492 -128.39011981 94.62629492 -128.47265625 90.16015625 C -126.84480992 82.72049491 -122.13929481 76.13352679 -118.10546875 69.7890625 C -114.73953471 64.34172049 -113.52288493 60.3462533 -114.47265625 54.08203125 C -115.16085967 51.36490219 -116.40564415 49.28755405 -118 47 C -118 46.34 -118 45.68 -118 45 C -112.7220209 47.31911203 -109.52954782 51.42757866 -106.625 56.3125 C -104.50788096 65.41611187 -106.5728376 71.21557418 -111.15380859 79.11450195 C -113.90181603 84.01746132 -114.40055036 87.37977778 -114 93 C -112.515 93.495 -112.515 93.495 -111 94 C -108.9921875 96.3984375 -108.9921875 96.3984375 -106.875 99.375 C -106.17117187 100.35210937 -105.46734375 101.32921875 -104.7421875 102.3359375 C -101.29256938 107.61091409 -101.50850525 112.88264564 -102 119 C -104.03729664 124.50070093 -108.18798898 131.09854343 -113.63671875 133.81640625 C -128.6222677 141.04643179 -128.6222677 141.04643179 -139.4375 152.875 C -139.623125 153.57625 -139.80875 154.2775 -140 155 C -134.9087833 161.03958059 -127.45436561 161.3457395 -120 162 C -106.02420183 162.74041194 -91.44231427 163.43329305 -78 159 C -76.91332031 158.64808594 -75.82664062 158.29617188 -74.70703125 157.93359375 C -52.01227952 149.87203481 -33.86018498 133.68996732 -22 113 C -21.62246582 112.3596582 -21.24493164 111.71931641 -20.85595703 111.05957031 C -7.34882307 87.9870069 0.30376084 59.71745274 0.0625 32.9375 C 0.05347656 31.62652344 0.04445313 30.31554687 0.03515625 28.96484375 C 0.02355469 27.98644531 0.01195312 27.00804687 0 26 C -0.58410645 26.18248291 -1.16821289 26.36496582 -1.77001953 26.55297852 C -62.15561066 45.08347346 -138.01791025 49.65536748 -197 23 C -197 22.67 -197 22.34 -197 22 C -185.76210298 22.67979717 -174.63837106 23.90955853 -163.46704102 25.27050781 C -145.31556363 27.47117188 -127.36773038 28.20796938 -109.08154297 28.24023438 C -105.76895058 28.24994445 -102.45697933 28.28108843 -99.14453125 28.3125 C -65.05581388 28.68150675 -65.05581388 28.68150675 -35 15 C -33.55569145 12.11138291 -33.62311494 10.20352299 -34 7 C -46.24803974 -7.48110776 -73.15221493 -8.14227399 -90.73828125 -9.62890625 C -121.28010448 -11.92085518 -152.18399175 -11.71683554 -182.65820312 -8.66503906 C -189.13622496 -8.02893534 -195.48718224 -7.75267781 -202 -8 C -164.62595729 -40.07473814 -38.08119839 -26.39290977 0 0 Z M 28 25 C 22.29506339 33.67371916 19.58873171 42.81368423 18 53 C 17.85498047 53.92844727 17.70996094 54.85689453 17.56054688 55.81347656 C 17.23260283 57.92121413 16.90472436 60.0289619 16.5769043 62.13671875 C 16.40715088 63.22597656 16.23739746 64.31523437 16.0625 65.4375 C 15.89339111 66.52675781 15.72428223 67.61601562 15.55004883 68.73828125 C 13.68943389 80.44012884 10.65929748 91.52100217 6.734375 102.70703125 C 5.8983296 104.9161665 5.8983296 104.9161665 6 107 C 27.45051807 103.48991522 47.13218148 90.81658613 60.25 73.65234375 C 67.53064685 62.61761336 71.58613442 47.69304369 69.4375 34.5625 C 66.14194902 26.39526497 59.96960371 21.43238016 52 18 C 42.25880873 15.05324272 35.0789974 18.01408528 28 25 Z M -101 182 C -101 182.33 -101 182.66 -101 183 C -98.03 183 -95.06 183 -92 183 C -92 182.67 -92 182.34 -92 182 C -94.97 182 -97.94 182 -101 182 Z" stroke-linecap="round" />
</g>
		<g transform="matrix(1 0 0 1 53.45 116.13)"  >
<path style="stroke: none; stroke-width: 1; stroke-dasharray: none; stroke-linecap: butt; stroke-dashoffset: 0; stroke-linejoin: miter; stroke-miterlimit: 4; fill: rgb(255,255,255); fill-rule: nonzero; opacity: 1;" vector-effect="non-scaling-stroke"  transform=" translate(63.89, -61.8)" d="M 0 0 C 1.57884583 1.57884583 1.15819681 3.15071229 1.16796875 5.33984375 C 1.10463393 11.18637472 0.30561188 16.80934837 -0.6875 22.5625 C -0.86756592 23.6131665 -1.04763184 24.66383301 -1.2331543 25.74633789 C -6.94553045 57.71953939 -20.84371737 87.53782476 -46.90625 107.87109375 C -71.13790823 124.54565655 -95.55931884 124.6818143 -124 123 C -124 122.34 -124 121.68 -124 121 C -125.65 121 -127.3 121 -129 121 C -124.78650562 115.37177063 -120.34006358 112.04164188 -114.25 108.625 C -99.93581696 100.30522541 -99.93581696 100.30522541 -91.5546875 86.47265625 C -89.81062172 78.69805318 -91.02080469 72.87536805 -95 66 C -97.67620324 61.99617636 -100.53676775 58.35018906 -104 55 C -103.03954437 51.63840529 -102.02587597 49.0383966 -100.0625 46.125 C -95.66226942 39.45798397 -93.8655089 33.00309481 -95 25 C -96.49089029 20.19845628 -97.75331602 16.83112265 -102 14 C -101.67 13.34 -101.34 12.68 -101 12 C -100.29955566 11.9906543 -99.59911133 11.98130859 -98.87744141 11.97167969 C -68.4098047 11.47019527 -38.09074719 8.43544404 -8.50390625 0.86328125 C -5.47314459 0.11657185 -3.09257445 -0.28114313 0 0 Z" stroke-linecap="round" />
</g>
		<g transform="matrix(1 0 0 1 4.46 28.86)"  >
<path style="stroke: none; stroke-width: 1; stroke-dasharray: none; stroke-linecap: butt; stroke-dashoffset: 0; stroke-linejoin: miter; stroke-miterlimit: 4; fill: rgb(255,255,255); fill-rule: nonzero; opacity: 1;" vector-effect="non-scaling-stroke"  transform=" translate(-18.8, -15.66)" d="M 0 0 C 1.09103027 0.00410889 2.18206055 0.00821777 3.30615234 0.01245117 C 29.40110596 0.18547489 56.51381801 0.49509129 82.125 6.0625 C 83.13348999 6.28063354 83.13348999 6.28063354 84.16235352 6.50317383 C 88.95198997 7.6692872 93.51325063 9.49185334 97.6875 12.125 C 99.12485246 14.99970493 99.06922649 16.94394588 98.6875 20.125 C 93.18294342 26.12997082 84.03277005 26.76014811 76.375 28.1875 C 75.50810547 28.36087891 74.64121094 28.53425781 73.74804688 28.71289062 C 58.39713623 31.57269625 42.56150377 31.33072341 27 31.3125 C 25.67230087 31.31209213 25.67230087 31.31209213 24.31777954 31.31167603 C 2.51380611 31.28117208 -19.05731306 29.86210723 -40.75 27.625 C -42.47440308 27.44747192 -42.47440308 27.44747192 -44.23364258 27.26635742 C -50.08877948 26.62007089 -55.6407812 25.72383203 -61.3125 24.125 C -61.3125 23.795 -61.3125 23.465 -61.3125 23.125 C -59.74459717 23.14071045 -59.74459717 23.14071045 -58.14501953 23.15673828 C -18.64235525 24.73333565 -18.64235525 24.73333565 19.6875 17.125 C 20.0175 16.465 20.3475 15.805 20.6875 15.125 C 13.66121859 7.00086212 3.81590601 6.20756462 -6.3125 4.4375 C -7.56417969 4.21255859 -8.81585938 3.98761719 -10.10546875 3.75585938 C -13.17334629 3.20551493 -16.24228047 2.66209717 -19.3125 2.125 C -19.3125 1.795 -19.3125 1.465 -19.3125 1.125 C -12.84097949 0.15772647 -6.53817974 -0.03042693 0 0 Z" stroke-linecap="round" />
</g>
		<g transform="matrix(1 0 0 1 10.08 -103.17)"  >
<path style="stroke: none; stroke-width: 1; stroke-dasharray: none; stroke-linecap: butt; stroke-dashoffset: 0; stroke-linejoin: miter; stroke-miterlimit: 4; fill: rgb(255,255,255); fill-rule: nonzero; opacity: 1;" vector-effect="non-scaling-stroke"  transform=" translate(11.26, -70.5)" d="M 0 0 C 1.23301078 3.69903234 0.61254869 4.69294429 -0.765625 8.26953125 C -1.16015869 9.3169751 -1.55469238 10.36441895 -1.96118164 11.44360352 C -2.3864917 12.55533936 -2.81180176 13.6670752 -3.25 14.8125 C -10.00664242 33.01923129 -14.06708958 48.52298995 -6.10595703 67.08447266 C -4.18226702 71.20199605 -2.08729271 75.22593094 0.05566406 79.23291016 C 6.61274904 91.5028639 12.69933233 103.77361948 8.8125 117.9375 C 6.30751056 125.60607616 2.84365713 133.36774399 -4.47265625 137.34375 C -6.96394093 138.60515997 -9.46869987 139.82130299 -12 141 C -12 139.33333333 -12 137.66666667 -12 136 C -11.34 136 -10.68 136 -10 136 C -9.86722656 135.37351563 -9.73445313 134.74703125 -9.59765625 134.1015625 C -9.42105469 133.28429687 -9.24445313 132.46703125 -9.0625 131.625 C -8.88847656 130.81289062 -8.71445313 130.00078125 -8.53515625 129.1640625 C -8 127 -8 127 -7 125 C -5.65853204 110.74211197 -10.52737194 103.08335986 -18.18920898 91.81762695 C -28.30543777 76.78029602 -35.11705715 60.35190278 -31.60888672 41.94824219 C -27.52251927 25.3000785 -16.24799931 9.82890325 -1.58203125 0.890625 C -1.05996094 0.59671875 -0.53789062 0.3028125 0 0 Z" stroke-linecap="round" />
</g>
		<g transform="matrix(1 0 0 1 41.8 -85.67)"  >
<path style="stroke: none; stroke-width: 1; stroke-dasharray: none; stroke-linecap: butt; stroke-dashoffset: 0; stroke-linejoin: miter; stroke-miterlimit: 4; fill: rgb(255,255,255); fill-rule: nonzero; opacity: 1;" vector-effect="non-scaling-stroke"  transform=" translate(-1.47, -70)" d="M 0 0 C 0.99 0.33 1.98 0.66 3 1 C 2.65066406 1.89203125 2.30132812 2.7840625 1.94140625 3.703125 C 1.48636719 4.87359375 1.03132813 6.0440625 0.5625 7.25 C 0.11003906 8.41015625 -0.34242188 9.5703125 -0.80859375 10.765625 C -3.93694009 19.25831604 -4.1043474 26.97801338 -0.40625 35.3515625 C 2.32738766 40.49991342 5.66361618 45.23001375 9 50 C 13 55.75 13 55.75 13 58 C 13.99 58.495 13.99 58.495 15 59 C 16.10646083 61.40662568 17.10816923 63.78406501 18.0625 66.25 C 18.33126953 66.91902344 18.60003906 67.58804688 18.87695312 68.27734375 C 23.57230124 80.19720504 24.09911475 95.23849592 19.32421875 107.234375 C 14.9167051 116.43944776 8.6034057 129.19829715 -1 134 C -1.33 134.99 -1.66 135.98 -2 137 C -4.06640625 137.94921875 -4.06640625 137.94921875 -6.5625 138.6875 C -7.80193359 139.06455078 -7.80193359 139.06455078 -9.06640625 139.44921875 C -10.02353516 139.72185547 -10.02353516 139.72185547 -11 140 C -9.53314603 134.64726972 -7.81927921 129.45363218 -5.79394531 124.28393555 C 0.65487839 107.76328664 4.08909438 91.93462744 -3 75 C -5.1736009 70.51884581 -7.54635465 66.14639067 -9.91674805 61.76708984 C -16.61706841 49.31184453 -21.86502862 37.05708917 -18.84765625 22.76953125 C -16.22955439 14.21545652 -10.99218714 8.33614282 -4 3 C -3.32195312 2.42121094 -2.64390625 1.84242187 -1.9453125 1.24609375 C -0.98238281 0.62927734 -0.98238281 0.62927734 0 0 Z" stroke-linecap="round" />
</g>
		<g transform="matrix(1 0 0 1 -92.65 99.74)"  >
<path style="stroke: none; stroke-width: 1; stroke-dasharray: none; stroke-linecap: butt; stroke-dashoffset: 0; stroke-linejoin: miter; stroke-miterlimit: 4; fill: rgb(255,255,255); fill-rule: nonzero; opacity: 1;" vector-effect="non-scaling-stroke"  transform=" translate(-2.02, -18.42)" d="M 0 0 C 0.33 4.95 0.66 9.9 1 15 C -1.27864583 15.42317708 -3.55729167 15.84635417 -5.8359375 16.26953125 C -8.35820641 16.87544942 -8.35820641 16.87544942 -10 20 C -9.84172822 23.60867549 -9.84172822 23.60867549 -9 27 C -6.71294169 28.14352916 -5.40735238 28.10334439 -2.875 28.0625 C -0.956875 28.0315625 -0.956875 28.0315625 1 28 C 3.31600983 19.77029517 5.39543435 11.67686204 6.60546875 3.1953125 C 7 1 7 1 8 0 C 10.53049402 -0.07313567 13.03304837 -0.09247527 15.5625 -0.0625 C 16.62887695 -0.05573242 16.62887695 -0.05573242 17.71679688 -0.04882812 C 19.47790013 -0.03700864 21.23896036 -0.01907263 23 0 C 23.98107462 4.16201893 24.95958457 8.32463021 25.93579102 12.48779297 C 26.26778018 13.90201836 26.60045211 15.31608366 26.93383789 16.72998047 C 27.41475012 18.77008348 27.89315001 20.81076227 28.37109375 22.8515625 C 28.8031311 24.68968506 28.8031311 24.68968506 29.24389648 26.56494141 C 29.93418678 29.70100356 30.50528764 32.82789585 31 36 C 25 36 19 36 13 36 C 12.01 36.33 11.02 36.66 10 37 C 9.67 36.34 9.34 35.68 9 35 C 8.67 35.33 8.34 35.66 8 36 C 5.67164772 36.07164161 3.3597039 35.9964482 1.03125 35.9375 C -0.99609236 35.76775055 -0.99609236 35.76775055 -2 37 C -8.25302245 37.80192983 -13.62798451 37.80402707 -19.0625 34.375 C -23.91511459 30.61926936 -25.53864131 27.16483692 -26.8125 21.1875 C -27.35633559 15.14745366 -26.52508656 9.89605356 -22.6875 5.125 C -15.02829487 -0.93111568 -9.43794773 -1.28699287 0 0 Z M 12 22 C 11.34 23.98 10.68 25.96 10 28 C 11.65 28 13.3 28 15 28 C 14.34 26.02 13.68 24.04 13 22 C 12.67 22 12.34 22 12 22 Z M 0 30 C 1 34 1 34 1 34 Z" stroke-linecap="round" />
</g>
		<g transform="matrix(1 0 0 1 -39.16 99.39)"  >
<path style="stroke: none; stroke-width: 1; stroke-dasharray: none; stroke-linecap: butt; stroke-dashoffset: 0; stroke-linejoin: miter; stroke-miterlimit: 4; fill: rgb(255,255,255); fill-rule: nonzero; opacity: 1;" vector-effect="non-scaling-stroke"  transform=" translate(-25.5, -18.06)" d="M 0 0 C 16.83 0 33.66 0 51 0 C 51 13 51 13 50 15 C 47.36 15 44.72 15 42 15 C 42 15.99 42 16.98 42 18 C 44.64 18 47.28 18 50 18 C 49.67 20.31 49.34 22.62 49 25 C 46.69 25 44.38 25 42 25 C 42 26.32 42 27.64 42 29 C 44.97 28.67 47.94 28.34 51 28 C 50.125 33.75 50.125 33.75 49 36 C 45.52085059 36.02887814 42.04173169 36.04675687 38.5625 36.0625 C 37.07266602 36.07506836 37.07266602 36.07506836 35.55273438 36.08789062 C 34.13637695 36.09272461 34.13637695 36.09272461 32.69140625 36.09765625 C 31.81685791 36.10289307 30.94230957 36.10812988 30.04125977 36.11352539 C 28 36 28 36 27 35 C 26.84193469 33.07521187 26.748865 31.1450079 26.68359375 29.21484375 C 26.64169922 28.04501953 26.59980469 26.87519531 26.55664062 25.66992188 C 26.51732422 24.43822266 26.47800781 23.20652344 26.4375 21.9375 C 26.39431641 20.70193359 26.35113281 19.46636719 26.30664062 18.19335938 C 26.20015802 15.12902665 26.09814576 12.06460927 26 9 C 25.34 10.98 24.68 12.96 24 15 C 21.69 15 19.38 15 17 15 C 17 16.98 17 18.96 17 21 C 19.31 21 21.62 21 24 21 C 23.74438677 23.3431213 23.40729228 25.67843403 23 28 C 20.3333581 29.33332095 18.83319697 28.67102033 16 28 C 16 30.64 16 33.28 16 36 C 11.38 36 6.76 36 2 36 C 1.34 24.12 0.68 12.24 0 0 Z" stroke-linecap="round" />
</g>
		<g transform="matrix(1 0 0 1 -22.25 132.97)"  >
<path style="stroke: none; stroke-width: 1; stroke-dasharray: none; stroke-linecap: butt; stroke-dashoffset: 0; stroke-linejoin: miter; stroke-miterlimit: 4; fill: rgb(255,255,255); fill-rule: nonzero; opacity: 1;" vector-effect="non-scaling-stroke"  transform=" translate(-1.42, -9.64)" d="M 0 0 C 0 2.64 0 5.28 0 8 C -1.98 8.33 -3.96 8.66 -6 9 C -6.33 10.65 -6.66 12.3 -7 14 C -6.34 14 -5.68 14 -5 14 C -5 12.68 -5 11.36 -5 10 C -2.69 10 -0.38 10 2 10 C 1.67 9.01 1.34 8.02 1 7 C 0.87218214 4.32605036 0.95608129 1.67904143 1 -1 C 7.30023379 -2.10530417 12.23311599 -2.30873536 17.9375 1.1875 C 19.66190633 4.12913432 19.29180684 6.67340203 19 10 C 18.62875 10.721875 18.2575 11.44375 17.875 12.1875 C 17.441875 13.0846875 17.441875 13.0846875 17 14 C 17.78309467 16.23470405 17.78309467 16.23470405 19 18 C 17.02 18.99 15.04 19.98 13 21 C 12.01 20.34 11.02 19.68 10 19 C 7.74877503 18.72168528 7.74877503 18.72168528 5.375 18.8125 C 4.57835937 18.81894531 3.78171875 18.82539063 2.9609375 18.83203125 C 0.99710266 18.78817102 0.99710266 18.78817102 0 20 C -4.30193823 20.46219171 -7.96164387 20.46394636 -11.9375 18.6875 C -14.45506104 16.62767733 -15.84656989 14.95288171 -16.37109375 11.6953125 C -16.48926076 7.12155413 -16.54044631 4.75662483 -13.8125 0.9375 C -8.65872251 -2.61288005 -5.74410899 -2.27092681 0 0 Z M 11 8 C 12 10 12 10 12 10 Z" stroke-linecap="round" />
</g>
		<g transform="matrix(1 0 0 1 -50.67 132.83)"  >
<path style="stroke: none; stroke-width: 1; stroke-dasharray: none; stroke-linecap: butt; stroke-dashoffset: 0; stroke-linejoin: miter; stroke-miterlimit: 4; fill: rgb(255,255,255); fill-rule: nonzero; opacity: 1;" vector-effect="non-scaling-stroke"  transform=" translate(-10.99, -10.5)" d="M 0 0 C 2.97 0 5.94 0 9 0 C 9.66 1.32 10.32 2.64 11 4 C 11.33 3.34 11.66 2.68 12 2 C 12.66 1.34 13.32 0.68 14 0 C 16.64 0 19.28 0 22 0 C 21.67 6.6 21.34 13.2 21 20 C 19.02 20 17.04 20 15 20 C 14.67 19.34 14.34 18.68 14 18 C 13.34 18.99 12.68 19.98 12 21 C 11.34 21 10.68 21 10 21 C 9.34 20.01 8.68 19.02 8 18 C 7.67 18.66 7.34 19.32 7 20 C 5.02 20 3.04 20 1 20 C 0.20075751 13.29207194 -0.0965085 6.75559498 0 0 Z" stroke-linecap="round" />
</g>
		<g transform="matrix(1 0 0 1 -46.16 39.33)"  >
<path style="stroke: none; stroke-width: 1; stroke-dasharray: none; stroke-linecap: butt; stroke-dashoffset: 0; stroke-linejoin: miter; stroke-miterlimit: 4; fill: rgb(255,255,255); fill-rule: nonzero; opacity: 1;" vector-effect="non-scaling-stroke"  transform=" translate(-29.5, -3)" d="M 0 0 C 18.81 0 37.62 0 57 0 C 56.01 0.99 55.02 1.98 54 3 C 56.475 3.495 56.475 3.495 59 4 C 58.67 4.66 58.34 5.32 58 6 C 55.36 6 52.72 6 50 6 C 50 5.01 50 4.02 50 3 C 47.36 2.67 44.72 2.34 42 2 C 42 2.66 42 3.32 42 4 C 9.00283607 4.50141804 9.00283607 4.50141804 0 0 Z" stroke-linecap="round" />
</g>
		<g transform="matrix(1 0 0 1 -17.16 17.14)"  >
<path style="stroke: none; stroke-width: 1; stroke-dasharray: none; stroke-linecap: butt; stroke-dashoffset: 0; stroke-linejoin: miter; stroke-miterlimit: 4; fill: rgb(255,255,255); fill-rule: nonzero; opacity: 1;" vector-effect="non-scaling-stroke"  transform=" translate(4.5, -3.87)" d="M 0 0 C 1.73443359 0.00676758 1.73443359 0.00676758 3.50390625 0.01367188 C 6.33599225 0.02537471 9.16796811 0.04177004 12 0.0625 C 11.7215625 0.9596875 11.7215625 0.9596875 11.4375 1.875 C 10.77906313 4.22658762 10.77906313 4.22658762 12 7.0625 C 8.39974016 8.26258661 7.01266603 7.75184667 3.375 6.8125 C -2.16152173 5.45495738 -7.6952335 4.34483681 -13.3125 3.375 C -14.45162842 3.17825684 -14.45162842 3.17825684 -15.61376953 2.97753906 C -17.40871229 2.66978744 -19.20428752 2.36572809 -21 2.0625 C -21 1.7325 -21 1.4025 -21 1.0625 C -13.97942879 -0.03016243 -7.09531697 -0.05282882 0 0 Z" stroke-linecap="round" />
</g>
		<g transform="matrix(1 0 0 1 -30.16 40.87)"  >
<path style="stroke: none; stroke-width: 1; stroke-dasharray: none; stroke-linecap: butt; stroke-dashoffset: 0; stroke-linejoin: miter; stroke-miterlimit: 4; fill: rgb(255,255,255); fill-rule: nonzero; opacity: 1;" vector-effect="non-scaling-stroke"  transform=" translate(-3.5, -2.54)" d="M 0 0 C 2.64 0 5.28 0 8 0 C 8.33 0.99 8.66 1.98 9 3 C 14.28 3.33 19.56 3.66 25 4 C 25 4.33 25 4.66 25 5 C 14.78375 5.22957865 4.68763948 4.96909811 -5.5 4.125 C -6.50877197 4.04652832 -7.51754395 3.96805664 -8.55688477 3.88720703 C -9.96732056 3.76128174 -9.96732056 3.76128174 -11.40625 3.6328125 C -12.24478516 3.55949707 -13.08332031 3.48618164 -13.94726562 3.41064453 C -16 3 -16 3 -18 1 C -12.06 1.33 -6.12 1.66 0 2 C 0 1.34 0 0.68 0 0 Z" stroke-linecap="round" />
</g>
		<g transform="matrix(1 0 0 1 10.84 19.83)"  >
<path style="stroke: none; stroke-width: 1; stroke-dasharray: none; stroke-linecap: butt; stroke-dashoffset: 0; stroke-linejoin: miter; stroke-miterlimit: 4; fill: rgb(255,255,255); fill-rule: nonzero; opacity: 1;" vector-effect="non-scaling-stroke"  transform=" translate(-12.5, -5.5)" d="M 0 0 C 8.58 0 17.16 0 26 0 C 26 0.66 26 1.32 26 2 C 19.07 2 12.14 2 5 2 C 5.33 2.99 5.66 3.98 6 5 C 5.67 5.99 5.34 6.98 5 8 C 5.66 8 6.32 8 7 8 C 6.67 8.99 6.34 9.98 6 11 C 2.535 9.02 2.535 9.02 -1 7 C -0.34 6.67 0.32 6.34 1 6 C 1 5.34 1 4.68 1 4 C 0.34 3.67 -0.32 3.34 -1 3 C -0.67 2.01 -0.34 1.02 0 0 Z" stroke-linecap="round" />
</g>
		<g transform="matrix(1 0 0 1 -31.23 135.46)"  >
<path style="stroke: none; stroke-width: 1; stroke-dasharray: none; stroke-linecap: butt; stroke-dashoffset: 0; stroke-linejoin: miter; stroke-miterlimit: 4; fill: rgb(255,255,255); fill-rule: nonzero; opacity: 1;" vector-effect="non-scaling-stroke"  transform=" translate(-8.44, -8.13)" d="M 0 0 C 0.33 0 0.66 0 1 0 C 1.33 3.3 1.66 6.6 2 10 C 2.99 10 3.98 10 5 10 C 5 11.32 5 12.64 5 14 C 7.64 13.67 10.28 13.34 13 13 C 13.103125 12.360625 13.20625 11.72125 13.3125 11.0625 C 13.6528125 10.0415625 13.6528125 10.0415625 14 9 C 14.99 8.67 15.98 8.34 17 8 C 17.04241723 10.33294775 17.04092937 12.66702567 17 15 C 15.43966377 16.56033623 13.91052864 16.20707559 11.75 16.25 C 7.68780609 16.20479275 5.2241093 15.63790761 2 13 C -0.20914 9.68629 -0.22481553 8.6553979 -0.125 4.8125 C -0.10695312 3.91144531 -0.08890625 3.01039063 -0.0703125 2.08203125 C -0.04710937 1.39496094 -0.02390625 0.70789063 0 0 Z" stroke-linecap="round" />
</g>
		<g transform="matrix(1 0 0 1 -63.16 45.17)"  >
<path style="stroke: none; stroke-width: 1; stroke-dasharray: none; stroke-linecap: butt; stroke-dashoffset: 0; stroke-linejoin: miter; stroke-miterlimit: 4; fill: rgb(255,255,255); fill-rule: nonzero; opacity: 1;" vector-effect="non-scaling-stroke"  transform=" translate(-10.5, -2.84)" d="M 0 0 C 14.78132118 0.96355353 14.78132118 0.96355353 21 2 C 20.67 2.99 20.34 3.98 20 5 C 12.22873489 6.94281628 7.05111365 4.39628641 0 1 C 0 0.67 0 0.34 0 0 Z" stroke-linecap="round" />
</g>
		<g transform="matrix(1 0 0 1 -22.66 15.8)"  >
<path style="stroke: none; stroke-width: 1; stroke-dasharray: none; stroke-linecap: butt; stroke-dashoffset: 0; stroke-linejoin: miter; stroke-miterlimit: 4; fill: rgb(255,255,255); fill-rule: nonzero; opacity: 1;" vector-effect="non-scaling-stroke"  transform=" translate(11, -2.48)" d="M 0 0 C -0.99 0.495 -0.99 0.495 -2 1 C -2 1.99 -2 2.98 -2 4 C -1.34 4.33 -0.68 4.66 0 5 C -7.47834967 4.51172287 -14.68925318 3.66594452 -22 2 C -22 1.67 -22 1.34 -22 1 C -14.66236293 -0.17402193 -7.41834582 -0.09377123 0 0 Z" stroke-linecap="round" />
</g>
		<g transform="matrix(1 0 0 1 -42.66 3.31)"  >
<path style="stroke: none; stroke-width: 1; stroke-dasharray: none; stroke-linecap: butt; stroke-dashoffset: 0; stroke-linejoin: miter; stroke-miterlimit: 4; fill: rgb(255,255,255); fill-rule: nonzero; opacity: 1;" vector-effect="non-scaling-stroke"  transform=" translate(11, -2.98)" d="M 0 0 C -0.33 0.66 -0.66 1.32 -1 2 C -3.109375 2.59765625 -3.109375 2.59765625 -5.75 3.0625 C -7.04164063 3.29646484 -7.04164063 3.29646484 -8.359375 3.53515625 C -9.66648438 3.76525391 -9.66648438 3.76525391 -11 4 C -12.33804688 4.30744141 -12.33804688 4.30744141 -13.703125 4.62109375 C -16 5 -16 5 -18 4 C -18.33 4.66 -18.66 5.32 -19 6 C -19.99 5.01 -20.98 4.02 -22 3 C -19.27172635 2.49465273 -16.54255306 1.99556155 -13.8125 1.5 C -13.04357422 1.35691406 -12.27464844 1.21382812 -11.48242188 1.06640625 C -7.60578227 0.36761285 -3.958529 -0.19039017 0 0 Z" stroke-linecap="round" />
</g>
		<g transform="matrix(1 0 0 1 192.34 107.83)"  >
<path style="stroke: none; stroke-width: 1; stroke-dasharray: none; stroke-linecap: butt; stroke-dashoffset: 0; stroke-linejoin: miter; stroke-miterlimit: 4; fill: rgb(255,255,255); fill-rule: nonzero; opacity: 1;" vector-effect="non-scaling-stroke"  transform=" translate(6, -7.5)" d="M 0 0 C 0 0.66 0 1.32 0 2 C -0.66 2 -1.32 2 -2 2 C -2.66 3.98 -3.32 5.96 -4 8 C -4.66 8 -5.32 8 -6 8 C -6 8.66 -6 9.32 -6 10 C -6.66 10 -7.32 10 -8 10 C -8 10.99 -8 11.98 -8 13 C -8.66 13 -9.32 13 -10 13 C -10 13.66 -10 14.32 -10 15 C -10.66 15 -11.32 15 -12 15 C -10.11890794 9.93552138 -6.34899532 0 0 0 Z" stroke-linecap="round" />
</g>
		<g transform="matrix(1 0 0 1 -9.66 140.73)"  >
<path style="stroke: none; stroke-width: 1; stroke-dasharray: none; stroke-linecap: butt; stroke-dashoffset: 0; stroke-linejoin: miter; stroke-miterlimit: 4; fill: rgb(255,255,255); fill-rule: nonzero; opacity: 1;" vector-effect="non-scaling-stroke"  transform=" translate(1, -3.4)" d="M 0 0 C 1.32 0.66 2.64 1.32 4 2 C 3 5 3 5 0.6875 6.3125 C -2 7 -2 7 -4.3125 6.125 C -4.869375 5.75375 -5.42625 5.3825 -6 5 C -6 4.01 -6 3.02 -6 2 C -5.38125 2.20625 -4.7625 2.4125 -4.125 2.625 C -3.073125 2.810625 -3.073125 2.810625 -2 3 C -1.34 2.34 -0.68 1.68 0 1 C 0 0.67 0 0.34 0 0 Z" stroke-linecap="round" />
</g>
		<g transform="matrix(1 0 0 1 -54.16 47.83)"  >
<path style="stroke: none; stroke-width: 1; stroke-dasharray: none; stroke-linecap: butt; stroke-dashoffset: 0; stroke-linejoin: miter; stroke-miterlimit: 4; fill: rgb(255,255,255); fill-rule: nonzero; opacity: 1;" vector-effect="non-scaling-stroke"  transform=" translate(1.5, -3.5)" d="M 0 0 C 0.33 0.66 0.66 1.32 1 2 C 1.66 2 2.32 2 3 2 C 3 3.65 3 5.3 3 7 C -1.455 6.01 -1.455 6.01 -6 5 C -5.01 4.01 -4.02 3.02 -3 2 C -2.34 2.33 -1.68 2.66 -1 3 C -0.67 2.01 -0.34 1.02 0 0 Z" stroke-linecap="round" />
</g>
		<g transform="matrix(1 0 0 1 -67.66 37.82)"  >
<path style="stroke: none; stroke-width: 1; stroke-dasharray: none; stroke-linecap: butt; stroke-dashoffset: 0; stroke-linejoin: miter; stroke-miterlimit: 4; fill: rgb(255,255,255); fill-rule: nonzero; opacity: 1;" vector-effect="non-scaling-stroke"  transform=" translate(-8, -1.5)" d="M 0 0 C 2.10388569 -0.05402274 4.20816714 -0.09280256 6.3125 -0.125 C 8.07013672 -0.15980469 8.07013672 -0.15980469 9.86328125 -0.1953125 C 13 0 13 0 16 2 C 15 3 15 3 11.9375 3.1875 C 7.64115245 2.98291202 4.12840823 2.15885143 0 1 C 0 0.67 0 0.34 0 0 Z" stroke-linecap="round" />
</g>
		<g transform="matrix(1 0 0 1 -64.66 44.18)"  >
<path style="stroke: none; stroke-width: 1; stroke-dasharray: none; stroke-linecap: butt; stroke-dashoffset: 0; stroke-linejoin: miter; stroke-miterlimit: 4; fill: rgb(255,255,255); fill-rule: nonzero; opacity: 1;" vector-effect="non-scaling-stroke"  transform=" translate(-9, -1.85)" d="M 0 0 C 2.25056722 0.11433363 4.50046674 0.24186436 6.75 0.375 C 8.62945312 0.47941406 8.62945312 0.47941406 10.546875 0.5859375 C 13.60998121 0.95323304 15.41974266 1.39711286 18 3 C 13.94769975 3.84815587 11.00600959 4.02718195 7 3 C 6.113125 2.855625 5.22625 2.71125 4.3125 2.5625 C 2 2 2 2 0 0 Z" stroke-linecap="round" />
</g>
		<g transform="matrix(1 0 0 1 -4.16 17.33)"  >
<path style="stroke: none; stroke-width: 1; stroke-dasharray: none; stroke-linecap: butt; stroke-dashoffset: 0; stroke-linejoin: miter; stroke-miterlimit: 4; fill: rgb(255,255,255); fill-rule: nonzero; opacity: 1;" vector-effect="non-scaling-stroke"  transform=" translate(-2.5, -4)" d="M 0 0 C 1.98 0 3.96 0 6 0 C 5.814375 0.598125 5.62875 1.19625 5.4375 1.8125 C 4.77906313 4.16408762 4.77906313 4.16408762 6 7 C 5.01 7.33 4.02 7.66 3 8 C 0.9375 6.25 0.9375 6.25 -1 4 C -0.75 1.75 -0.75 1.75 0 0 Z" stroke-linecap="round" />
</g>
		<g transform="matrix(1 0 0 1 -9.66 128.33)"  >
<path style="stroke: none; stroke-width: 1; stroke-dasharray: none; stroke-linecap: butt; stroke-dashoffset: 0; stroke-linejoin: miter; stroke-miterlimit: 4; fill: rgb(255,255,255); fill-rule: nonzero; opacity: 1;" vector-effect="non-scaling-stroke"  transform=" translate(-3, -4)" d="M 0 0 C 2.475 0.495 2.475 0.495 5 1 C 5.33 2.65 5.66 4.3 6 6 C 4.02 6.99 4.02 6.99 2 8 C 0 1.125 0 1.125 0 0 Z" stroke-linecap="round" />
</g>
		<g transform="matrix(1 0 0 1 149.84 121.77)"  >
<path style="stroke: none; stroke-width: 1; stroke-dasharray: none; stroke-linecap: butt; stroke-dashoffset: 0; stroke-linejoin: miter; stroke-miterlimit: 4; fill: rgb(255,255,255); fill-rule: nonzero; opacity: 1;" vector-effect="non-scaling-stroke"  transform=" translate(5.5, -2.44)" d="M 0 0 C -1.65 1.98 -3.3 3.96 -5 6 C -6.98 5.34 -8.96 4.68 -11 4 C -3.77464789 -1.88732394 -3.77464789 -1.88732394 0 0 Z" stroke-linecap="round" />
</g>
		<g transform="matrix(1 0 0 1 9.84 88.33)"  >
<path style="stroke: none; stroke-width: 1; stroke-dasharray: none; stroke-linecap: butt; stroke-dashoffset: 0; stroke-linejoin: miter; stroke-miterlimit: 4; fill: rgb(255,255,255); fill-rule: nonzero; opacity: 1;" vector-effect="non-scaling-stroke"  transform=" translate(2.5, -3)" d="M 0 0 C 0.66 0.66 1.32 1.32 2 2 C 1.625 4.125 1.625 4.125 1 6 C -1.66666667 6 -4.33333333 6 -7 6 C -6.34 4.35 -5.68 2.7 -5 1 C -4.34 1.33 -3.68 1.66 -3 2 C -3.33 2.66 -3.66 3.32 -4 4 C -2.68 2.68 -1.36 1.36 0 0 Z" stroke-linecap="round" />
</g>
		<g transform="matrix(1 0 0 1 33.84 -19.17)"  >
<path style="stroke: none; stroke-width: 1; stroke-dasharray: none; stroke-linecap: butt; stroke-dashoffset: 0; stroke-linejoin: miter; stroke-miterlimit: 4; fill: rgb(255,255,255); fill-rule: nonzero; opacity: 1;" vector-effect="non-scaling-stroke"  transform=" translate(0.5, -3.5)" d="M 0 0 C 0.33 0.66 0.66 1.32 1 2 C 1.99 2 2.98 2 4 2 C 4 2.66 4 3.32 4 4 C -0.455 5.485 -0.455 5.485 -5 7 C -4.75 4.625 -4.75 4.625 -4 2 C -1.9375 0.6875 -1.9375 0.6875 0 0 Z" stroke-linecap="round" />
</g>
		<g transform="matrix(1 0 0 1 5.84 162.83)"  >
<path style="stroke: none; stroke-width: 1; stroke-dasharray: none; stroke-linecap: butt; stroke-dashoffset: 0; stroke-linejoin: miter; stroke-miterlimit: 4; fill: rgb(255,255,255); fill-rule: nonzero; opacity: 1;" vector-effect="non-scaling-stroke"  transform=" translate(4.5, -4.5)" d="M 0 0 C 0.66 0.33 1.32 0.66 2 1 C -1.33491686 5.81710214 -1.33491686 5.81710214 -4.5 6.6875 C -5.325 6.790625 -6.15 6.89375 -7 7 C -9.23408113 7.99083967 -9.23408113 7.99083967 -11 9 C -9.73948004 5.21844011 -8.43553394 4.74381633 -5.0625 2.75 C -4.16660156 2.20859375 -3.27070313 1.6671875 -2.34765625 1.109375 C -1.57292969 0.74328125 -0.79820312 0.3771875 0 0 Z" stroke-linecap="round" />
</g>
		<g transform="matrix(1 0 0 1 191.84 78.33)"  >
<path style="stroke: none; stroke-width: 1; stroke-dasharray: none; stroke-linecap: butt; stroke-dashoffset: 0; stroke-linejoin: miter; stroke-miterlimit: 4; fill: rgb(255,255,255); fill-rule: nonzero; opacity: 1;" vector-effect="non-scaling-stroke"  transform=" translate(-0.5, -6)" d="M 0 0 C 1.32 0.66 2.64 1.32 4 2 C 3.34 2 2.68 2 2 2 C 1.9175 3.093125 1.835 4.18625 1.75 5.3125 C 1 9 1 9 -3 12 C -2.01 8.04 -1.02 4.08 0 0 Z" stroke-linecap="round" />
</g>
		<g transform="matrix(1 0 0 1 -18.16 208.33)"  >
<path style="stroke: none; stroke-width: 1; stroke-dasharray: none; stroke-linecap: butt; stroke-dashoffset: 0; stroke-linejoin: miter; stroke-miterlimit: 4; fill: rgb(255,255,255); fill-rule: nonzero; opacity: 1;" vector-effect="non-scaling-stroke"  transform=" translate(4.5, -5)" d="M 0 0 C 0 2.31 0 4.62 0 7 C -0.99 6.34 -1.98 5.68 -3 5 C -4.32 5.99 -5.64 6.98 -7 8 C -7.33 7.34 -7.66 6.68 -8 6 C -6.85675161 4.9970458 -5.71032809 3.99770973 -4.5625 3 C -3.92441406 2.443125 -3.28632813 1.88625 -2.62890625 1.3125 C -1 0 -1 0 0 0 Z M -8 8 C -7.67 8.66 -7.34 9.32 -7 10 C -7.66 9.67 -8.32 9.34 -9 9 C -8.67 8.67 -8.34 8.34 -8 8 Z" stroke-linecap="round" />
</g>
		<g transform="matrix(1 0 0 1 114.84 155.46)"  >
<path style="stroke: none; stroke-width: 1; stroke-dasharray: none; stroke-linecap: butt; stroke-dashoffset: 0; stroke-linejoin: miter; stroke-miterlimit: 4; fill: rgb(255,255,255); fill-rule: nonzero; opacity: 1;" vector-effect="non-scaling-stroke"  transform=" translate(5.5, -2.13)" d="M 0 0 C -2.69007598 2.69007598 -5.36855815 3.02729236 -9 4 C -9.99 4.495 -9.99 4.495 -11 5 C -11 4.01 -11 3.02 -11 2 C -7.14864878 -1.17170101 -4.74352223 -1.21345918 0 0 Z" stroke-linecap="round" />
</g>
		<g transform="matrix(1 0 0 1 -6.59 129.33)"  >
<path style="stroke: none; stroke-width: 1; stroke-dasharray: none; stroke-linecap: butt; stroke-dashoffset: 0; stroke-linejoin: miter; stroke-miterlimit: 4; fill: rgb(255,255,255); fill-rule: nonzero; opacity: 1;" vector-effect="non-scaling-stroke"  transform=" translate(-2.07, -6)" d="M 0 0 C 3 1 3 1 4 3 C 4.1875 6.5 4.1875 6.5 4 10 C 3.34 10.66 2.68 11.32 2 12 C 1.34 8.04 0.68 4.08 0 0 Z" stroke-linecap="round" />
</g>
		<g transform="matrix(1 0 0 1 145.84 54.33)"  >
<path style="stroke: none; stroke-width: 1; stroke-dasharray: none; stroke-linecap: butt; stroke-dashoffset: 0; stroke-linejoin: miter; stroke-miterlimit: 4; fill: rgb(255,255,255); fill-rule: nonzero; opacity: 1;" vector-effect="non-scaling-stroke"  transform=" translate(-0.5, -5)" d="M 0 0 C 1.32 0.33 2.64 0.66 4 1 C 2.68 3.97 1.36 6.94 0 10 C -0.99 8.68 -1.98 7.36 -3 6 C -2.505 5.195625 -2.01 4.39125 -1.5 3.5625 C 0.08419653 1.35103815 0.08419653 1.35103815 0 0 Z" stroke-linecap="round" />
</g>
		<g transform="matrix(1 0 0 1 52.84 2.83)"  >
<path style="stroke: none; stroke-width: 1; stroke-dasharray: none; stroke-linecap: butt; stroke-dashoffset: 0; stroke-linejoin: miter; stroke-miterlimit: 4; fill: rgb(255,255,255); fill-rule: nonzero; opacity: 1;" vector-effect="non-scaling-stroke"  transform=" translate(-6.5, -2.5)" d="M 0 0 C 4.29 0.33 8.58 0.66 13 1 C 13 1.66 13 2.32 13 3 C 12.34 3 11.68 3 11 3 C 10.67 3.66 10.34 4.32 10 5 C 9.34 4.34 8.68 3.68 8 3 C 5.34462628 2.43479997 2.70855287 2.26211802 0 2 C 0 1.34 0 0.68 0 0 Z" stroke-linecap="round" />
</g>
		<g transform="matrix(1 0 0 1 67.84 195.83)"  >
<path style="stroke: none; stroke-width: 1; stroke-dasharray: none; stroke-linecap: butt; stroke-dashoffset: 0; stroke-linejoin: miter; stroke-miterlimit: 4; fill: rgb(255,255,255); fill-rule: nonzero; opacity: 1;" vector-effect="non-scaling-stroke"  transform=" translate(2.5, -3.5)" d="M 0 0 C 0.66 0.66 1.32 1.32 2 2 C 1.34 2.66 0.68 3.32 0 4 C -0.99 4 -1.98 4 -3 4 C -3 4.66 -3 5.32 -3 6 C -4.32 6.33 -5.64 6.66 -7 7 C -7 5.68 -7 4.36 -7 3 C -5.5459375 2.5359375 -5.5459375 2.5359375 -4.0625 2.0625 C -1.15934208 1.30476658 -1.15934208 1.30476658 0 0 Z" stroke-linecap="round" />
</g>
		<g transform="matrix(1 0 0 1 -26.16 126.83)"  >
<path style="stroke: none; stroke-width: 1; stroke-dasharray: none; stroke-linecap: butt; stroke-dashoffset: 0; stroke-linejoin: miter; stroke-miterlimit: 4; fill: rgb(255,255,255); fill-rule: nonzero; opacity: 1;" vector-effect="non-scaling-stroke"  transform=" translate(-2.5, -4.5)" d="M 0 0 C 2.475 0.495 2.475 0.495 5 1 C 5 3.64 5 6.28 5 9 C 4.01 9 3.02 9 2 9 C 2.185625 8.401875 2.37125 7.80375 2.5625 7.1875 C 3.22093687 4.83591238 3.22093687 4.83591238 2 2 C 1.34 1.34 0.68 0.68 0 0 Z" stroke-linecap="round" />
</g>
		<g transform="matrix(1 0 0 1 -37.16 38.33)"  >
<path style="stroke: none; stroke-width: 1; stroke-dasharray: none; stroke-linecap: butt; stroke-dashoffset: 0; stroke-linejoin: miter; stroke-miterlimit: 4; fill: rgb(255,255,255); fill-rule: nonzero; opacity: 1;" vector-effect="non-scaling-stroke"  transform=" translate(-3.5, -2)" d="M 0 0 C 1.98 0 3.96 0 6 0 C 6.33 1.32 6.66 2.64 7 4 C 4.69 4 2.38 4 0 4 C 0 2.68 0 1.36 0 0 Z" stroke-linecap="round" />
</g>
		<g transform="matrix(1 0 0 1 91.84 60.26)"  >
<path style="stroke: none; stroke-width: 1; stroke-dasharray: none; stroke-linecap: butt; stroke-dashoffset: 0; stroke-linejoin: miter; stroke-miterlimit: 4; fill: rgb(255,255,255); fill-rule: nonzero; opacity: 1;" vector-effect="non-scaling-stroke"  transform=" translate(6.5, -1.93)" d="M 0 0 C 0 0.66 0 1.32 0 2 C -1.60049704 2.39036513 -3.20562371 2.76178619 -4.8125 3.125 C -5.70582031 3.33382813 -6.59914063 3.54265625 -7.51953125 3.7578125 C -10 4 -10 4 -13 2 C -11.39658445 1.66307215 -9.79223445 1.33058907 -8.1875 1 C -7.29417969 0.814375 -6.40085937 0.62875 -5.48046875 0.4375 C -3 0 -3 0 0 0 Z" stroke-linecap="round" />
</g>
		<g transform="matrix(1 0 0 1 67.84 20.93)"  >
<path style="stroke: none; stroke-width: 1; stroke-dasharray: none; stroke-linecap: butt; stroke-dashoffset: 0; stroke-linejoin: miter; stroke-miterlimit: 4; fill: rgb(255,255,255); fill-rule: nonzero; opacity: 1;" vector-effect="non-scaling-stroke"  transform=" translate(-5.5, -1.6)" d="M 0 0 C 1.45922693 0.11409593 2.91740598 0.24165544 4.375 0.375 C 5.59316406 0.47941406 5.59316406 0.47941406 6.8359375 0.5859375 C 9 1 9 1 11 3 C 4.6 3.36923077 4.6 3.36923077 1.5625 1.5 C 1.046875 1.005 0.53125 0.51 0 0 Z" stroke-linecap="round" />
</g>
		<g transform="matrix(1 0 0 1 66.84 4.33)"  >
<path style="stroke: none; stroke-width: 1; stroke-dasharray: none; stroke-linecap: butt; stroke-dashoffset: 0; stroke-linejoin: miter; stroke-miterlimit: 4; fill: rgb(255,255,255); fill-rule: nonzero; opacity: 1;" vector-effect="non-scaling-stroke"  transform=" translate(-5.5, -2)" d="M 0 0 C 1.45880109 0.14107747 2.91703551 0.28802415 4.375 0.4375 C 5.59316406 0.55931641 5.59316406 0.55931641 6.8359375 0.68359375 C 9 1 9 1 11 2 C 11 2.66 11 3.32 11 4 C 9.54054712 3.91291331 8.08234132 3.80473093 6.625 3.6875 C 5.81289063 3.62949219 5.00078125 3.57148438 4.1640625 3.51171875 C 2 3 2 3 0 0 Z" stroke-linecap="round" />
</g>
		<g transform="matrix(1 0 0 1 1.34 21.83)"  >
<path style="stroke: none; stroke-width: 1; stroke-dasharray: none; stroke-linecap: butt; stroke-dashoffset: 0; stroke-linejoin: miter; stroke-miterlimit: 4; fill: rgb(255,255,255); fill-rule: nonzero; opacity: 1;" vector-effect="non-scaling-stroke"  transform=" translate(1, -3.5)" d="M 0 0 C 0.66 0.33 1.32 0.66 2 1 C 1.67 1.99 1.34 2.98 1 4 C 1.66 4 2.32 4 3 4 C 2.67 4.99 2.34 5.98 2 7 C -1.465 5.02 -1.465 5.02 -5 3 C -5 2.67 -5 2.34 -5 2 C -3.35 2 -1.7 2 0 2 C 0 1.34 0 0.68 0 0 Z" stroke-linecap="round" />
</g>
		<g transform="matrix(1 0 0 1 -7.66 171.83)"  >
<path style="stroke: none; stroke-width: 1; stroke-dasharray: none; stroke-linecap: butt; stroke-dashoffset: 0; stroke-linejoin: miter; stroke-miterlimit: 4; fill: rgb(255,255,255); fill-rule: nonzero; opacity: 1;" vector-effect="non-scaling-stroke"  transform=" translate(2, -3.5)" d="M 0 0 C 0.66 0.33 1.32 0.66 2 1 C 0.98545548 3.5363613 0.3146444 4.79351461 -2 6.3125 C -2.66 6.539375 -3.32 6.76625 -4 7 C -4.66 6.67 -5.32 6.34 -6 6 C -4.02 4.02 -2.04 2.04 0 0 Z" stroke-linecap="round" />
</g>
		<g transform="matrix(1 0 0 1 160.34 136.83)"  >
<path style="stroke: none; stroke-width: 1; stroke-dasharray: none; stroke-linecap: butt; stroke-dashoffset: 0; stroke-linejoin: miter; stroke-miterlimit: 4; fill: rgb(255,255,255); fill-rule: nonzero; opacity: 1;" vector-effect="non-scaling-stroke"  transform=" translate(3, -3.5)" d="M 0 0 C 0.66 0.33 1.32 0.66 2 1 C 0.64695791 3.70608417 -0.80966544 3.96183047 -3.5625 5.125 C -4.38878906 5.47820312 -5.21507812 5.83140625 -6.06640625 6.1953125 C -6.70449219 6.46085937 -7.34257812 6.72640625 -8 7 C -7.1953125 5.046875 -7.1953125 5.046875 -6 3 C -2.875 2.25 -2.875 2.25 0 2 C 0 1.34 0 0.68 0 0 Z" stroke-linecap="round" />
</g>
		<g transform="matrix(1 0 0 1 47.34 171.83)"  >
<path style="stroke: none; stroke-width: 1; stroke-dasharray: none; stroke-linecap: butt; stroke-dashoffset: 0; stroke-linejoin: miter; stroke-miterlimit: 4; fill: rgb(255,255,255); fill-rule: nonzero; opacity: 1;" vector-effect="non-scaling-stroke"  transform=" translate(0, -2.5)" d="M 0 0 C 0.99 0.33 1.98 0.66 3 1 C 3 1.99 3 2.98 3 4 C 1.35 4.33 -0.3 4.66 -2 5 C -2.33 4.34 -2.66 3.68 -3 3 C -2.01 2.01 -1.02 1.02 0 0 Z" stroke-linecap="round" />
</g>
		<g transform="matrix(1 0 0 1 79.84 34.33)"  >
<path style="stroke: none; stroke-width: 1; stroke-dasharray: none; stroke-linecap: butt; stroke-dashoffset: 0; stroke-linejoin: miter; stroke-miterlimit: 4; fill: rgb(255,255,255); fill-rule: nonzero; opacity: 1;" vector-effect="non-scaling-stroke"  transform=" translate(1.5, -3)" d="M 0 0 C 0.33 1.32 0.66 2.64 1 4 C -0.65 4.66 -2.3 5.32 -4 6 C -3.6875 4.125 -3.6875 4.125 -3 2 C -2.01 1.34 -1.02 0.68 0 0 Z" stroke-linecap="round" />
</g>
		<g transform="matrix(1 0 0 1 193.34 27.83)"  >
<path style="stroke: none; stroke-width: 1; stroke-dasharray: none; stroke-linecap: butt; stroke-dashoffset: 0; stroke-linejoin: miter; stroke-miterlimit: 4; fill: rgb(255,255,255); fill-rule: nonzero; opacity: 1;" vector-effect="non-scaling-stroke"  transform=" translate(-4, -3.5)" d="M 0 0 C 3.37503669 1.1858237 5.64722731 2.27573689 8 5 C 7.67 5.66 7.34 6.32 7 7 C 6.01 6.34 5.02 5.68 4 5 C 4 4.34 4 3.68 4 3 C 2.68 2.67 1.36 2.34 0 2 C 0 1.34 0 0.68 0 0 Z" stroke-linecap="round" />
</g>
		<g transform="matrix(1 0 0 1 -211.66 -224.67)"  >
<path style="stroke: none; stroke-width: 1; stroke-dasharray: none; stroke-linecap: butt; stroke-dashoffset: 0; stroke-linejoin: miter; stroke-miterlimit: 4; fill: rgb(255,255,255); fill-rule: nonzero; opacity: 1;" vector-effect="non-scaling-stroke"  transform=" translate(0, 0)" d="" stroke-linecap="round" />
</g>
		<g transform="matrix(1 0 0 1 -211.66 -224.67)"  >
<path style="stroke: none; stroke-width: 1; stroke-dasharray: none; stroke-linecap: butt; stroke-dashoffset: 0; stroke-linejoin: miter; stroke-miterlimit: 4; fill: rgb(255,255,255); fill-rule: nonzero; opacity: 1;" vector-effect="non-scaling-stroke"  transform=" translate(0, 0)" d="" stroke-linecap="round" />
</g>
		<g transform="matrix(1 0 0 1 -211.66 -224.67)"  >
<path style="stroke: none; stroke-width: 1; stroke-dasharray: none; stroke-linecap: butt; stroke-dashoffset: 0; stroke-linejoin: miter; stroke-miterlimit: 4; fill: rgb(255,255,255); fill-rule: nonzero; opacity: 1;" vector-effect="non-scaling-stroke"  transform=" translate(0, 0)" d="" stroke-linecap="round" />
</g>
		<g transform="matrix(1 0 0 1 -211.66 -224.67)"  >
<path style="stroke: none; stroke-width: 1; stroke-dasharray: none; stroke-linecap: butt; stroke-dashoffset: 0; stroke-linejoin: miter; stroke-miterlimit: 4; fill: rgb(255,255,255); fill-rule: nonzero; opacity: 1;" vector-effect="non-scaling-stroke"  transform=" translate(0, 0)" d="" stroke-linecap="round" />
</g>
		<g transform="matrix(1 0 0 1 -211.66 -224.67)"  >
<path style="stroke: none; stroke-width: 1; stroke-dasharray: none; stroke-linecap: butt; stroke-dashoffset: 0; stroke-linejoin: miter; stroke-miterlimit: 4; fill: rgb(255,255,255); fill-rule: nonzero; opacity: 1;" vector-effect="non-scaling-stroke"  transform=" translate(0, 0)" d="" stroke-linecap="round" />
</g>
		<g transform="matrix(1 0 0 1 -211.66 -224.67)"  >
<path style="stroke: none; stroke-width: 1; stroke-dasharray: none; stroke-linecap: butt; stroke-dashoffset: 0; stroke-linejoin: miter; stroke-miterlimit: 4; fill: rgb(255,255,255); fill-rule: nonzero; opacity: 1;" vector-effect="non-scaling-stroke"  transform=" translate(0, 0)" d="" stroke-linecap="round" />
</g>
		<g transform="matrix(1 0 0 1 -211.66 -224.67)"  >
<path style="stroke: none; stroke-width: 1; stroke-dasharray: none; stroke-linecap: butt; stroke-dashoffset: 0; stroke-linejoin: miter; stroke-miterlimit: 4; fill: rgb(255,255,255); fill-rule: nonzero; opacity: 1;" vector-effect="non-scaling-stroke"  transform=" translate(0, 0)" d="" stroke-linecap="round" />
</g>
		<g transform="matrix(1 0 0 1 -211.66 -224.67)"  >
<path style="stroke: none; stroke-width: 1; stroke-dasharray: none; stroke-linecap: butt; stroke-dashoffset: 0; stroke-linejoin: miter; stroke-miterlimit: 4; fill: rgb(255,255,255); fill-rule: nonzero; opacity: 1;" vector-effect="non-scaling-stroke"  transform=" translate(0, 0)" d="" stroke-linecap="round" />
</g>
		<g transform="matrix(1 0 0 1 -211.66 -224.67)"  >
<path style="stroke: none; stroke-width: 1; stroke-dasharray: none; stroke-linecap: butt; stroke-dashoffset: 0; stroke-linejoin: miter; stroke-miterlimit: 4; fill: rgb(255,255,255); fill-rule: nonzero; opacity: 1;" vector-effect="non-scaling-stroke"  transform=" translate(0, 0)" d="" stroke-linecap="round" />
</g>
		<g transform="matrix(1 0 0 1 -211.66 -224.67)"  >
<path style="stroke: none; stroke-width: 1; stroke-dasharray: none; stroke-linecap: butt; stroke-dashoffset: 0; stroke-linejoin: miter; stroke-miterlimit: 4; fill: rgb(255,255,255); fill-rule: nonzero; opacity: 1;" vector-effect="non-scaling-stroke"  transform=" translate(0, 0)" d="" stroke-linecap="round" />
</g>
		<g transform="matrix(1 0 0 1 -211.66 -224.67)"  >
<path style="stroke: none; stroke-width: 1; stroke-dasharray: none; stroke-linecap: butt; stroke-dashoffset: 0; stroke-linejoin: miter; stroke-miterlimit: 4; fill: rgb(255,255,255); fill-rule: nonzero; opacity: 1;" vector-effect="non-scaling-stroke"  transform=" translate(0, 0)" d="" stroke-linecap="round" />
</g>
		<g transform="matrix(1 0 0 1 -211.66 -224.67)"  >
<path style="stroke: none; stroke-width: 1; stroke-dasharray: none; stroke-linecap: butt; stroke-dashoffset: 0; stroke-linejoin: miter; stroke-miterlimit: 4; fill: rgb(255,255,255); fill-rule: nonzero; opacity: 1;" vector-effect="non-scaling-stroke"  transform=" translate(0, 0)" d="" stroke-linecap="round" />
</g>
		<g transform="matrix(1 0 0 1 -211.66 -224.67)"  >
<path style="stroke: none; stroke-width: 1; stroke-dasharray: none; stroke-linecap: butt; stroke-dashoffset: 0; stroke-linejoin: miter; stroke-miterlimit: 4; fill: rgb(255,255,255); fill-rule: nonzero; opacity: 1;" vector-effect="non-scaling-stroke"  transform=" translate(0, 0)" d="" stroke-linecap="round" />
</g>
		<g transform="matrix(1 0 0 1 -211.66 -224.67)"  >
<path style="stroke: none; stroke-width: 1; stroke-dasharray: none; stroke-linecap: butt; stroke-dashoffset: 0; stroke-linejoin: miter; stroke-miterlimit: 4; fill: rgb(255,255,255); fill-rule: nonzero; opacity: 1;" vector-effect="non-scaling-stroke"  transform=" translate(0, 0)" d="" stroke-linecap="round" />
</g>
		<g transform="matrix(1 0 0 1 -211.66 -224.67)"  >
<path style="stroke: none; stroke-width: 1; stroke-dasharray: none; stroke-linecap: butt; stroke-dashoffset: 0; stroke-linejoin: miter; stroke-miterlimit: 4; fill: rgb(255,255,255); fill-rule: nonzero; opacity: 1;" vector-effect="non-scaling-stroke"  transform=" translate(0, 0)" d="" stroke-linecap="round" />
</g>
		<g transform="matrix(1 0 0 1 -211.66 -224.67)"  >
<path style="stroke: none; stroke-width: 1; stroke-dasharray: none; stroke-linecap: butt; stroke-dashoffset: 0; stroke-linejoin: miter; stroke-miterlimit: 4; fill: rgb(255,255,255); fill-rule: nonzero; opacity: 1;" vector-effect="non-scaling-stroke"  transform=" translate(0, 0)" d="" stroke-linecap="round" />
</g>
		<g transform="matrix(1 0 0 1 -211.66 -224.67)"  >
<path style="stroke: none; stroke-width: 1; stroke-dasharray: none; stroke-linecap: butt; stroke-dashoffset: 0; stroke-linejoin: miter; stroke-miterlimit: 4; fill: rgb(255,255,255); fill-rule: nonzero; opacity: 1;" vector-effect="non-scaling-stroke"  transform=" translate(0, 0)" d="" stroke-linecap="round" />
</g>
		<g transform="matrix(1 0 0 1 -211.66 -224.67)"  >
<path style="stroke: none; stroke-width: 1; stroke-dasharray: none; stroke-linecap: butt; stroke-dashoffset: 0; stroke-linejoin: miter; stroke-miterlimit: 4; fill: rgb(255,255,255); fill-rule: nonzero; opacity: 1;" vector-effect="non-scaling-stroke"  transform=" translate(0, 0)" d="" stroke-linecap="round" />
</g>
</g>
</g>
</svg>